<svg xmlns="http://www.w3.org/2000/svg" width="144" height="134" viewBox="0 0 144 134"><g><g><path fill="#fff" d="M.093 107.678c0-5.278 4.304-9.571 9.597-9.571h63.222l34.046-66.814a2.32 2.32 0 0 1 .288-.94c.63-1.091.78-2.381.42-3.628-.37-1.28-1.229-2.361-2.417-3.046-2.373-1.366-5.516-.598-6.797 1.613a2.407 2.407 0 0 1-3.278.876 2.39 2.39 0 0 1-.878-3.269c.631-1.091.78-2.383.42-3.63-.37-1.28-1.229-2.361-2.419-3.046-2.377-1.373-5.6-.627-6.87 1.558a2.406 2.406 0 0 1-3.282.885 2.39 2.39 0 0 1-.878-3.268C86.848 5.754 96.842 0 108 0c5.83 0 11.68 1.593 16.916 4.608 15.728 9.06 21.201 27.987 12.455 43.093a2.396 2.396 0 0 1-2.08 1.197c-.408 0-.82-.104-1.197-.321a2.39 2.39 0 0 1-.878-3.269l.004-.007c1.318-2.285.384-5.295-2.08-6.715-2.366-1.368-5.514-.597-6.795 1.614a2.408 2.408 0 0 1-3.278.875 2.392 2.392 0 0 1-.878-3.268c.634-1.094.782-2.381.425-3.628-.37-1.28-1.231-2.362-2.419-3.046-2.087-1.206-4.787-.747-6.272.905-.021.05-.017.105-.043.155L81.485 91.85 113.2 60.223a9.541 9.541 0 0 1 6.785-2.795c2.567 0 4.979.993 6.786 2.795a9.493 9.493 0 0 1 2.802 6.767 9.499 9.499 0 0 1-2.8 6.767l-41.08 40.903c-2.53 1.694-5.579 2.59-8.818 2.59H9.69c-5.293 0-9.597-4.293-9.597-9.572zm143.173 22.237a2.385 2.385 0 0 1 0 3.383 2.395 2.395 0 0 1-1.697.701 2.385 2.385 0 0 1-1.694-.701l-1.72-1.716c-.053.006-.1.025-.154.025H.004v-11.964h85.385l54.484-54.335a2.402 2.402 0 0 1 3.393 0 2.386 2.386 0 0 1 0 3.383L112.57 99.303l20.395 20.34 7.073 7.054zm-17.087-10.272l-17.002-16.956-17.002 16.956zM14.4 26.32a2.396 2.396 0 0 1 2.4-2.393h4.964a18.96 18.96 0 0 1 3.89-9.327l-3.52-3.509a2.385 2.385 0 0 1 0-3.383 2.401 2.401 0 0 1 3.392 0l3.52 3.508a19.112 19.112 0 0 1 9.351-3.874v-4.95A2.395 2.395 0 0 1 40.797 0c1.324 0 2.399 1.069 2.399 2.393v4.95a19.112 19.112 0 0 1 9.35 3.874l3.52-3.508a2.401 2.401 0 0 1 3.393 0 2.385 2.385 0 0 1 0 3.383l-3.52 3.51a19 19 0 0 1 3.885 9.326h4.964c1.325 0 2.4 1.07 2.4 2.393a2.396 2.396 0 0 1-2.4 2.393h-4.97a19 19 0 0 1-3.884 9.327l3.52 3.508a2.386 2.386 0 0 1 0 3.384 2.396 2.396 0 0 1-1.696.7 2.395 2.395 0 0 1-1.697-.7l-3.52-3.509a19.109 19.109 0 0 1-9.35 3.875v4.95a2.395 2.395 0 0 1-2.4 2.393c-1.324 0-2.399-1.069-2.399-2.393V45.3a19.11 19.11 0 0 1-9.35-3.875l-3.52 3.509a2.395 2.395 0 0 1-1.697.7 2.396 2.396 0 0 1-1.696-.7 2.386 2.386 0 0 1 0-3.384l3.52-3.508a18.997 18.997 0 0 1-3.885-9.327H16.8c-1.325 0-2.4-1.07-2.4-2.393z"/></g></g></svg>