<svg xmlns="http://www.w3.org/2000/svg" width="19" height="19" viewBox="0 0 19 19"><g><g><path fill="#fff" d="M19 9.744l.002.112c0 .56-.472 1.016-1.053 1.016h-2.224c-.582 0-1.053-.454-1.053-1.016v-.11c0-.562.471-1.016 1.052-1.016h2.225c.58 0 1.053.454 1.052 1.014zm.001-2.534v.113c0 .56-.47 1.015-1.051 1.015h-2.226c-.58 0-1.052-.453-1.052-1.015v-.11c0-.562.472-1.016 1.053-1.016h.26v-.001h.575v-4.16l-9.59-.001v2.27a96.927 96.927 0 0 1 2.114-1.123c1.244-.623 1.961.136 1.746 1.037-.166.694-1.389 1.46-2.678 2.421-.254.19-.7.474-1.182.769v9.216h9.59v-.687h-.835c-.582 0-1.053-.455-1.053-1.014v-.113c0-.56.47-1.015 1.052-1.015h2.225c.58 0 1.052.453 1.054 1.014l-.002.11c0 .562-.47 1.016-1.053 1.016h-.26v.002h-.202v1.78c0 .703-.599 1.281-1.331 1.281h-8.78c-.732 0-1.331-.578-1.331-1.282v-1.459H4.445S2.083 16.25.802 14.382l-.04-.056a4.008 4.008 0 0 1-.152-.256 4.173 4.173 0 0 1-.121-.233 4.105 4.105 0 0 1-.286-.756c-.015-.055-.025-.114-.039-.17a5.547 5.547 0 0 1-.123-.707 6.962 6.962 0 0 1-.044-.755c0-3 1.453-4.27 2.445-4.663.003-.003 1.83-1.011 3.602-1.977V1.284C6.044.578 6.643 0 7.374 0h8.78c.733 0 1.332.578 1.332 1.284v4.912h.464c.581 0 1.052.456 1.051 1.014zM11.1 17.717c0 .356.297.642.664.642a.653.653 0 0 0 .666-.64.654.654 0 0 0-.666-.643.654.654 0 0 0-.664.641zm2.23-16.635a.158.158 0 0 0-.16-.156h-2.81a.158.158 0 0 0-.161.156c0 .085.072.154.161.154h2.81c.088 0 .16-.07.16-.154zM19 12.279l.001.112c-.001.56-.47 1.014-1.053 1.014h-2.224c-.581 0-1.052-.454-1.052-1.014v-.112c0-.56.472-1.016 1.052-1.016h2.225c.582 0 1.052.455 1.052 1.016z"/></g></g></svg>