<svg xmlns="http://www.w3.org/2000/svg" width="133" height="132" viewBox="0 0 133 132"><defs><clipPath id="yi05a"><path fill="#fff" d="M0 132V0h133v132zm2.27-42.753c6.508 6.532 17.098 6.532 23.607 0a7.954 7.954 0 0 1 5.671-2.358c2.142 0 4.156.838 5.671 2.358a16.554 16.554 0 0 0 11.804 4.907c4.459 0 8.65-1.743 11.804-4.907a7.954 7.954 0 0 1 5.67-2.358c2.143 0 4.157.838 5.672 2.358 6.508 6.532 17.017 6.449 23.608 0 2.52-2.467 4.354-2.35 5.67-2.358 2.143-.012 4.157.838 5.672 2.358 6.508 6.532 17.099 6.532 23.607 0a4.364 4.364 0 0 0 0-6.155 4.326 4.326 0 0 0-6.132 0 7.954 7.954 0 0 1-5.672 2.357 7.953 7.953 0 0 1-5.67-2.357c-3.469-3.48-8.218-5.263-13.22-4.844V21.019C100.032 9.98 91.084 1 80.085 1 69.086 1 60.138 9.98 60.138 21.02a4.345 4.345 0 0 0 4.336 4.353 4.345 4.345 0 0 0 4.337-4.353c0-6.239 5.057-11.315 11.274-11.315 6.217 0 11.274 5.076 11.274 11.315v18.57H52.043v-18.57C52.043 9.98 43.095 1 32.096 1 21.097 1 12.149 9.98 12.149 21.02a4.344 4.344 0 0 0 4.336 4.353 4.344 4.344 0 0 0 4.337-4.353c0-6.239 5.057-11.315 11.274-11.315 6.217 0 11.275 5.076 11.275 11.315v62.09l-.02-.017c-6.508-6.533-17.098-6.533-23.607 0a7.954 7.954 0 0 1-5.67 2.357 7.954 7.954 0 0 1-5.672-2.357 4.326 4.326 0 0 0-6.133 0 4.364 4.364 0 0 0 0 6.155zm81.702-3.798a7.954 7.954 0 0 1-5.671-2.357c-6.509-6.532-17.099-6.533-23.608 0a8.01 8.01 0 0 1-2.65 1.768V74.406h39.316v7.185c-.6.459-1.174.956-1.716 1.5a7.952 7.952 0 0 1-5.67 2.358zm7.387-37.156v17.409H52.043V48.293zm39.367 53.223a4.325 4.325 0 0 0-6.133 0 7.955 7.955 0 0 1-5.67 2.357 7.955 7.955 0 0 1-5.672-2.357c-6.523-6.548-17.083-6.548-23.607 0a7.955 7.955 0 0 1-5.672 2.357 7.956 7.956 0 0 1-5.671-2.357c-6.509-6.532-17.099-6.532-23.608 0a7.955 7.955 0 0 1-5.67 2.357 7.955 7.955 0 0 1-5.672-2.357c-6.508-6.532-17.099-6.532-23.607 0a7.955 7.955 0 0 1-5.671 2.357 7.955 7.955 0 0 1-5.672-2.357 4.325 4.325 0 0 0-6.132 0 4.363 4.363 0 0 0 0 6.155c6.508 6.533 17.099 6.533 23.607 0a7.953 7.953 0 0 1 5.671-2.357c2.143 0 4.157.837 5.671 2.357a16.554 16.554 0 0 0 11.804 4.907 16.55 16.55 0 0 0 11.804-4.907 7.953 7.953 0 0 1 5.671-2.357c2.143 0 4.157.837 5.671 2.357 6.509 6.532 17.099 6.533 23.608 0a7.952 7.952 0 0 1 5.671-2.357c2.142 0 4.156.836 5.671 2.357 6.509 6.533 17.099 6.533 23.608 0a4.363 4.363 0 0 0 0-6.155zm0 18.424a4.324 4.324 0 0 0-6.133 0 7.953 7.953 0 0 1-5.67 2.357 7.955 7.955 0 0 1-5.672-2.357 16.554 16.554 0 0 0-11.804-4.907c-4.459 0-8.65 1.742-11.804 4.907a7.953 7.953 0 0 1-5.67 2.357 7.956 7.956 0 0 1-5.672-2.357c-6.509-6.533-17.1-6.533-23.608 0a7.953 7.953 0 0 1-5.671 2.357 7.953 7.953 0 0 1-5.671-2.357c-6.509-6.533-17.099-6.533-23.607 0a7.953 7.953 0 0 1-5.672 2.357 7.955 7.955 0 0 1-5.671-2.357 4.325 4.325 0 0 0-6.133 0 4.363 4.363 0 0 0 0 6.155c6.51 6.532 17.1 6.532 23.608 0a7.953 7.953 0 0 1 5.671-2.358c2.143 0 4.156.838 5.671 2.358a16.551 16.551 0 0 0 11.804 4.907 16.55 16.55 0 0 0 11.803-4.907 7.953 7.953 0 0 1 5.672-2.358c2.142 0 4.156.838 5.671 2.358 6.509 6.532 17.099 6.532 23.608 0a7.953 7.953 0 0 1 5.671-2.358c2.142 0 4.156.837 5.67 2.358 6.51 6.532 17.1 6.532 23.608 0a4.363 4.363 0 0 0 0-6.155z"/></clipPath></defs><g><g><path fill="#fff" d="M2.27 89.247a4.364 4.364 0 0 1 0-6.155 4.326 4.326 0 0 1 6.132 0 7.954 7.954 0 0 0 5.671 2.357 7.954 7.954 0 0 0 5.671-2.357c6.509-6.533 17.1-6.533 23.608 0l.019.018V21.02c0-6.24-5.058-11.316-11.275-11.316-6.217 0-11.274 5.076-11.274 11.315a4.344 4.344 0 0 1-4.337 4.353 4.344 4.344 0 0 1-4.336-4.353C12.15 9.98 21.097 1 32.096 1c11 0 19.947 8.981 19.947 20.02v18.57H91.36v-18.57c0-6.239-5.057-11.315-11.274-11.315-6.217 0-11.274 5.076-11.274 11.315a4.345 4.345 0 0 1-4.337 4.353 4.345 4.345 0 0 1-4.336-4.353C60.138 9.98 69.086 1 80.085 1c10.999 0 19.947 8.981 19.947 20.02v57.229c5.002-.42 9.751 1.363 13.22 4.844a7.953 7.953 0 0 0 5.67 2.357 7.954 7.954 0 0 0 5.672-2.357 4.326 4.326 0 0 1 6.132 0 4.364 4.364 0 0 1 0 6.155c-6.508 6.532-17.099 6.532-23.607 0-1.515-1.52-3.529-2.37-5.671-2.358-1.317.007-3.15-.109-5.671 2.358-6.591 6.449-17.1 6.532-23.608 0a7.954 7.954 0 0 0-5.671-2.358 7.954 7.954 0 0 0-5.671 2.358 16.554 16.554 0 0 1-11.804 4.907c-4.459 0-8.651-1.743-11.804-4.907a7.953 7.953 0 0 0-5.67-2.358 7.954 7.954 0 0 0-5.672 2.358c-6.509 6.532-17.1 6.532-23.608 0zm87.373-6.155a16.876 16.876 0 0 1 1.716-1.5v-7.186H52.043V84.86a8.01 8.01 0 0 0 2.65-1.768c6.51-6.533 17.1-6.532 23.608 0a7.954 7.954 0 0 0 5.671 2.357 7.952 7.952 0 0 0 5.671-2.357zm-37.6-34.799v17.409h39.316V48.293zm78.683 53.223a4.363 4.363 0 0 1 0 6.155c-6.509 6.533-17.1 6.533-23.608 0a7.953 7.953 0 0 0-5.67-2.357 7.952 7.952 0 0 0-5.672 2.357c-6.51 6.533-17.1 6.532-23.608 0a7.955 7.955 0 0 0-5.671-2.357 7.953 7.953 0 0 0-5.671 2.357 16.55 16.55 0 0 1-11.804 4.907c-4.459 0-8.65-1.743-11.804-4.907a7.954 7.954 0 0 0-5.67-2.357 7.953 7.953 0 0 0-5.672 2.357c-6.508 6.533-17.099 6.533-23.607 0a4.363 4.363 0 0 1 0-6.155 4.325 4.325 0 0 1 6.132 0 7.955 7.955 0 0 0 5.672 2.357 7.955 7.955 0 0 0 5.67-2.357c6.51-6.532 17.1-6.532 23.608 0a7.955 7.955 0 0 0 5.671 2.357 7.955 7.955 0 0 0 5.671-2.357c6.51-6.532 17.1-6.532 23.608 0a7.956 7.956 0 0 0 5.671 2.357 7.955 7.955 0 0 0 5.672-2.357c6.524-6.548 17.084-6.548 23.607 0a7.955 7.955 0 0 0 5.671 2.357 7.955 7.955 0 0 0 5.671-2.357 4.325 4.325 0 0 1 6.133 0zm0 18.424a4.363 4.363 0 0 1 0 6.155c-6.51 6.532-17.1 6.532-23.608 0a7.952 7.952 0 0 0-5.671-2.358 7.953 7.953 0 0 0-5.671 2.358c-6.51 6.532-17.1 6.532-23.608 0a7.957 7.957 0 0 0-5.671-2.358 7.953 7.953 0 0 0-5.672 2.358 16.55 16.55 0 0 1-11.803 4.907c-4.459 0-8.651-1.743-11.804-4.907a7.955 7.955 0 0 0-5.671-2.358 7.953 7.953 0 0 0-5.671 2.358c-6.509 6.532-17.099 6.532-23.608 0a4.363 4.363 0 0 1 0-6.155 4.325 4.325 0 0 1 6.133 0 7.955 7.955 0 0 0 5.671 2.357 7.953 7.953 0 0 0 5.672-2.357c6.508-6.533 17.098-6.533 23.607 0a7.953 7.953 0 0 0 5.671 2.357 7.953 7.953 0 0 0 5.671-2.357c6.509-6.533 17.1-6.533 23.608 0a7.956 7.956 0 0 0 5.671 2.357 7.953 7.953 0 0 0 5.671-2.357 16.551 16.551 0 0 1 11.804-4.907c4.46 0 8.651 1.743 11.804 4.907a7.955 7.955 0 0 0 5.671 2.357 7.953 7.953 0 0 0 5.671-2.357 4.324 4.324 0 0 1 6.132 0z"/><path fill="none" stroke="#fff" stroke-linecap="round" stroke-linejoin="round" stroke-miterlimit="20" stroke-width="2" d="M2.27 89.247a4.364 4.364 0 0 1 0-6.155 4.326 4.326 0 0 1 6.132 0 7.954 7.954 0 0 0 5.671 2.357 7.954 7.954 0 0 0 5.671-2.357c6.509-6.533 17.1-6.533 23.608 0l.019.018V21.02c0-6.24-5.058-11.316-11.275-11.316-6.217 0-11.274 5.076-11.274 11.315a4.344 4.344 0 0 1-4.337 4.353 4.344 4.344 0 0 1-4.336-4.353C12.15 9.98 21.097 1 32.096 1c11 0 19.947 8.981 19.947 20.02v18.57H91.36v-18.57c0-6.239-5.057-11.315-11.274-11.315-6.217 0-11.274 5.076-11.274 11.315a4.345 4.345 0 0 1-4.337 4.353 4.345 4.345 0 0 1-4.336-4.353C60.138 9.98 69.086 1 80.085 1c10.999 0 19.947 8.981 19.947 20.02v57.229c5.002-.42 9.751 1.363 13.22 4.844a7.953 7.953 0 0 0 5.67 2.357 7.954 7.954 0 0 0 5.672-2.357 4.326 4.326 0 0 1 6.132 0 4.364 4.364 0 0 1 0 6.155c-6.508 6.532-17.099 6.532-23.607 0-1.515-1.52-3.529-2.37-5.671-2.358-1.317.007-3.15-.109-5.671 2.358-6.591 6.449-17.1 6.532-23.608 0a7.954 7.954 0 0 0-5.671-2.358 7.954 7.954 0 0 0-5.671 2.358 16.554 16.554 0 0 1-11.804 4.907c-4.459 0-8.651-1.743-11.804-4.907a7.953 7.953 0 0 0-5.67-2.358 7.954 7.954 0 0 0-5.672 2.358c-6.509 6.532-17.1 6.532-23.608 0zm87.373-6.155a16.876 16.876 0 0 1 1.716-1.5v-7.186H52.043V84.86a8.01 8.01 0 0 0 2.65-1.768c6.51-6.533 17.1-6.532 23.608 0a7.954 7.954 0 0 0 5.671 2.357 7.952 7.952 0 0 0 5.671-2.357zm-37.6-34.799v17.409h39.316V48.293zm78.683 53.223a4.363 4.363 0 0 1 0 6.155c-6.509 6.533-17.1 6.533-23.608 0a7.953 7.953 0 0 0-5.67-2.357 7.952 7.952 0 0 0-5.672 2.357c-6.51 6.533-17.1 6.532-23.608 0a7.955 7.955 0 0 0-5.671-2.357 7.953 7.953 0 0 0-5.671 2.357 16.55 16.55 0 0 1-11.804 4.907c-4.459 0-8.65-1.743-11.804-4.907a7.954 7.954 0 0 0-5.67-2.357 7.953 7.953 0 0 0-5.672 2.357c-6.508 6.533-17.099 6.533-23.607 0a4.363 4.363 0 0 1 0-6.155 4.325 4.325 0 0 1 6.132 0 7.955 7.955 0 0 0 5.672 2.357 7.955 7.955 0 0 0 5.67-2.357c6.51-6.532 17.1-6.532 23.608 0a7.955 7.955 0 0 0 5.671 2.357 7.955 7.955 0 0 0 5.671-2.357c6.51-6.532 17.1-6.532 23.608 0a7.956 7.956 0 0 0 5.671 2.357 7.955 7.955 0 0 0 5.672-2.357c6.524-6.548 17.084-6.548 23.607 0a7.955 7.955 0 0 0 5.671 2.357 7.955 7.955 0 0 0 5.671-2.357 4.325 4.325 0 0 1 6.133 0zm0 18.424a4.363 4.363 0 0 1 0 6.155c-6.51 6.532-17.1 6.532-23.608 0a7.952 7.952 0 0 0-5.671-2.358 7.953 7.953 0 0 0-5.671 2.358c-6.51 6.532-17.1 6.532-23.608 0a7.957 7.957 0 0 0-5.671-2.358 7.953 7.953 0 0 0-5.672 2.358 16.55 16.55 0 0 1-11.803 4.907c-4.459 0-8.651-1.743-11.804-4.907a7.955 7.955 0 0 0-5.671-2.358 7.953 7.953 0 0 0-5.671 2.358c-6.509 6.532-17.099 6.532-23.608 0a4.363 4.363 0 0 1 0-6.155 4.325 4.325 0 0 1 6.133 0 7.955 7.955 0 0 0 5.671 2.357 7.953 7.953 0 0 0 5.672-2.357c6.508-6.533 17.098-6.533 23.607 0a7.953 7.953 0 0 0 5.671 2.357 7.953 7.953 0 0 0 5.671-2.357c6.509-6.533 17.1-6.533 23.608 0a7.956 7.956 0 0 0 5.671 2.357 7.953 7.953 0 0 0 5.671-2.357 16.551 16.551 0 0 1 11.804-4.907c4.46 0 8.651 1.743 11.804 4.907a7.955 7.955 0 0 0 5.671 2.357 7.953 7.953 0 0 0 5.671-2.357 4.324 4.324 0 0 1 6.132 0z" clip-path="url(&quot;#yi05a&quot;)"/></g></g></svg>