<svg xmlns="http://www.w3.org/2000/svg" width="35" height="25" viewBox="0 0 35 25"><g><g><path fill="#ff1a3a" d="M0 22.87v-9.416a2.136 2.136 0 0 0 2.142-2.13h27.451c0 1.176.96 2.13 2.142 2.13v9.416A2.136 2.136 0 0 0 29.593 25H2.142c0-1.176-.96-2.13-2.142-2.13zm7.979 1.456h-.576v.573h.576zm0-1.146h-.576v.573h.576zm0-1.145h-.576v.573h.576zm0-1.146h-.576v.573h.576zm5.666 2.932h14.98a3.335 3.335 0 0 1 1.924-1.913v-7.492a3.335 3.335 0 0 1-1.923-1.913h-14.98zM7.403 12.296h.576v-.573h-.576zm0 1.146h.576v-.573h-.576zm0 1.146h.576v-.573h-.576zm0 1.145h.576v-.573h-.576zM5.76 17.896c0 .975.71 1.78 1.643 1.945v.475h.576v-.463a1.977 1.977 0 0 0 1.763-1.957c0-1.093-.891-1.98-1.99-1.98-1.1 0-1.992.887-1.992 1.98zm3.784-7.751H1.936a.01.01 0 0 1-.003-.002l3.206-8.86A2.145 2.145 0 0 0 7.879 0l9.708 3.474 16.123 5.77A2.127 2.127 0 0 0 35 11.968l-2.079 5.746V14.23l.635-1.755a3.3 3.3 0 0 1-.841-1.102 3.285 3.285 0 0 1-.319-1.348L18.301 4.982l-1.867 5.161h-4.49c.295-.223.533-.528.668-.9a1.969 1.969 0 0 0-.993-2.435l.158-.436-.542-.194-.162.447a1.99 1.99 0 0 0-2.207 1.277 1.967 1.967 0 0 0 .678 2.242zm3.056-7.74l.542.194.195-.54-.542-.193zm-.39 1.078l.542.194.195-.54-.542-.193zm-.39 1.078l.542.194.196-.54-.543-.193zm-.39 1.078l.542.194.195-.54-.542-.193z"/></g></g></svg>